<?xml version="1.0" encoding="UTF-8" standalone="no"?>
<svg
   xmlns:dc="http://purl.org/dc/elements/1.1/"
   xmlns:cc="http://creativecommons.org/ns#"
   xmlns:rdf="http://www.w3.org/1999/02/22-rdf-syntax-ns#"
   xmlns:svg="http://www.w3.org/2000/svg"
   xmlns="http://www.w3.org/2000/svg"
   xmlns:sodipodi="http://sodipodi.sourceforge.net/DTD/sodipodi-0.dtd"
   xmlns:inkscape="http://www.inkscape.org/namespaces/inkscape"
   data-name="Layer 1"
   id="Layer_1"
   viewBox="0 0 120 120"
   version="1.1"
   sodipodi:docname="questions.svg"
   width="120"
   height="120"
   inkscape:version="0.92.1 r15371">
  <metadata
     id="metadata15">
    <rdf:RDF>
      <cc:Work
         rdf:about="">
        <dc:format>image/svg+xml</dc:format>
        <dc:type
           rdf:resource="http://purl.org/dc/dcmitype/StillImage" />
        <dc:title></dc:title>
      </cc:Work>
    </rdf:RDF>
  </metadata>
  <sodipodi:namedview
     pagecolor="#ffffff"
     bordercolor="#666666"
     borderopacity="1"
     objecttolerance="10"
     gridtolerance="10"
     guidetolerance="10"
     inkscape:pageopacity="0"
     inkscape:pageshadow="2"
     inkscape:window-width="1920"
     inkscape:window-height="1025"
     id="namedview13"
     showgrid="false"
     inkscape:zoom="5.2149125"
     inkscape:cx="123.12967"
     inkscape:cy="66.438125"
     inkscape:window-x="0"
     inkscape:window-y="27"
     inkscape:window-maximized="1"
     inkscape:current-layer="Layer_1" />
  <defs
     id="defs4">
    <style
       id="style2">.cls-1{fill:#ff7d00;}.cls-2{fill:#fff;}</style>
  </defs>
  <circle
     class="cls-1"
     cx="60"
     cy="60"
     r="60"
     id="circle8"
     style="fill:#ff7d00" />
  <path
     class="cls-2"
     d="m 55.11,72.190063 q -0.11,-0.68 -0.11,-1.31 c 0,-0.42 0,-0.86 0,-1.32 a 16,16 0 0 1 1.19,-6.46 17,17 0 0 1 3,-4.72 24,24 0 0 1 4,-3.48 q 2.12,-1.49 4,-3 a 18,18 0 0 0 3,-3.06 6.08,6.08 0 0 0 1.19,-3.78 5.59,5.59 0 0 0 -2.46,-4.76 q -2.47,-1.78 -7.65,-1.78 a 14.72,14.72 0 0 0 -4.84,0.76 24.34,24.34 0 0 0 -4.08,1.83 25.88,25.88 0 0 0 -3.31,2.21 q -1.45,1.15 -2.55,1.91 l -5.49,-7.11 a 24.75,24.75 0 0 1 4.63,-3.91 28.61,28.61 0 0 1 5.48,-2.8 33.24,33.24 0 0 1 5.95,-1.66 34,34 0 0 1 6,-0.55 q 9.26,0 14.4,3.87 a 12.36,12.36 0 0 1 5.14,10.41 17.12,17.12 0 0 1 -1.32,7.18 16.23,16.23 0 0 1 -3.28,4.84 28.73,28.73 0 0 1 -4.41,3.5 39.35,39.35 0 0 0 -4.33,3.27 16.41,16.41 0 0 0 -3.36,4 11.36,11.36 0 0 0 -1.36,5.86 z m -1.7,12.07 a 6.13,6.13 0 0 1 1.87,-4.72 6.94,6.94 0 0 1 4.93,-1.74 7.19,7.19 0 0 1 5.1,1.74 6.14,6.14 0 0 1 1.87,4.72 6.27,6.27 0 0 1 -1.87,4.74 7.08,7.08 0 0 1 -5.1,1.78 6.84,6.84 0 0 1 -4.93,-1.78 6.27,6.27 0 0 1 -1.86,-4.74 z"
     id="path10"
     inkscape:connector-curvature="0"
     style="fill:#ffffff" />
</svg>
