<?xml version="1.0" encoding="UTF-8" standalone="no"?>
<svg
   xmlns:dc="http://purl.org/dc/elements/1.1/"
   xmlns:cc="http://creativecommons.org/ns#"
   xmlns:rdf="http://www.w3.org/1999/02/22-rdf-syntax-ns#"
   xmlns:svg="http://www.w3.org/2000/svg"
   xmlns="http://www.w3.org/2000/svg"
   xmlns:sodipodi="http://sodipodi.sourceforge.net/DTD/sodipodi-0.dtd"
   xmlns:inkscape="http://www.inkscape.org/namespaces/inkscape"
   enable-background="new 0 0 100 100"
   height="90"
   id="Layer_1"
   version="1.1"
   viewBox="0 0 90 90"
   width="90"
   xml:space="preserve"
   sodipodi:docname="tg.svg"
   inkscape:version="0.92.1 r15371"><metadata
     id="metadata72"><rdf:RDF><cc:Work
         rdf:about=""><dc:format>image/svg+xml</dc:format><dc:type
           rdf:resource="http://purl.org/dc/dcmitype/StillImage" /><dc:title></dc:title></cc:Work></rdf:RDF></metadata><defs
     id="defs70" /><sodipodi:namedview
     pagecolor="#ffffff"
     bordercolor="#666666"
     borderopacity="1"
     objecttolerance="10"
     gridtolerance="10"
     guidetolerance="10"
     inkscape:pageopacity="0"
     inkscape:pageshadow="2"
     inkscape:window-width="1920"
     inkscape:window-height="1025"
     id="namedview68"
     showgrid="false"
     inkscape:zoom="8.17"
     inkscape:cx="50"
     inkscape:cy="50"
     inkscape:window-x="0"
     inkscape:window-y="27"
     inkscape:window-maximized="1"
     inkscape:current-layer="Layer_1" /><g
     id="g65"
     transform="translate(-5,-5)"><circle
       cx="50"
       cy="50"
       r="45"
       id="circle61"
       style="fill:#139bd0" /><path
       d="m 51.474,60.754 c -1.733,1.688 -3.451,3.348 -5.153,5.021 -0.595,0.586 -1.264,0.91 -2.118,0.865 C 43.62,66.609 43.294,66.353 43.115,65.8 41.811,61.753 40.488,57.716 39.191,53.665 39.065,53.272 38.879,53.081 38.481,52.958 35.409,52.02 32.343,51.06 29.282,50.087 28.811,49.937 28.336,49.741 27.929,49.464 27.3,49.038 27.208,48.343 27.772,47.843 c 0.521,-0.461 1.143,-0.863 1.789,-1.119 3.755,-1.488 7.53,-2.928 11.299,-4.381 9.565,-3.693 19.13,-7.383 28.696,-11.076 1.819,-0.703 3.217,0.287 3.028,2.254 -0.121,1.258 -0.447,2.496 -0.71,3.738 -2.077,9.807 -4.156,19.615 -6.244,29.42 -0.496,2.328 -2.131,2.936 -4.047,1.523 -3.209,-2.365 -6.415,-4.738 -9.622,-7.107 -0.153,-0.111 -0.312,-0.218 -0.487,-0.341 z m -7.203,2.978 c 0.036,-0.01 0.072,-0.02 0.108,-0.029 0.02,-0.092 0.049,-0.182 0.057,-0.273 0.206,-2.223 0.424,-4.445 0.603,-6.672 0.04,-0.496 0.21,-0.848 0.583,-1.182 2.958,-2.645 5.898,-5.307 8.844,-7.963 3.261,-2.941 6.523,-5.879 9.772,-8.832 0.201,-0.182 0.285,-0.492 0.423,-0.744 -0.306,-0.033 -0.634,-0.156 -0.912,-0.084 -0.379,0.098 -0.738,0.318 -1.076,0.531 -7.197,4.533 -14.388,9.074 -21.59,13.598 -0.407,0.256 -0.483,0.473 -0.328,0.92 0.531,1.525 1.014,3.064 1.515,4.6 0.667,2.044 1.334,4.087 2.001,6.13 z"
       id="path63"
       inkscape:connector-curvature="0"
       style="clip-rule:evenodd;fill:#ffffff;fill-rule:evenodd" /></g></svg>