<?xml version="1.0" encoding="UTF-8" standalone="no"?>
<svg version="1.1" baseProfile="full" width="512" height="512" xmlns="http://www.w3.org/2000/svg">
<polygon fill="#FAFAFA" stroke="none" stroke-width="0.000000" stroke-linecap="butt" stroke-linejoin="miter" points="256.000000 16.000000, 463.846097 136.000000, 463.846097 376.000000, 256.000000 496.000000, 48.153903 376.000000, 48.153903 136.000000" />
<polyline fill="none" stroke="#212121" stroke-width="22.080000" stroke-linecap="butt" stroke-linejoin="miter" points="449.229182 163.560920, 256.000000 52.000000, 79.330818 154.000000, 79.330818 207.760000, 432.669182 304.240000, 432.669182 358.000000, 256.000000 460.000000, 62.770818 348.439080" />
<polygon fill="none" stroke="#FAFAFA" stroke-width="20.136915" stroke-linecap="butt" stroke-linejoin="miter" points="256.000000 27.626053, 453.777640 141.813027, 453.777640 370.186973, 256.000000 484.373947, 58.222360 370.186973, 58.222360 141.813027" />
<path fill="#F44336" d="M 256.000000 16.000000 L 463.846097 136.000000 A 240.000000 240.000000 0 0 0 256.000000 16.000000" />
<path fill="#FF9800" d="M 463.846097 136.000000 L 463.846097 376.000000 A 240.000000 240.000000 0 0 0 463.846097 136.000000" />
<path fill="#4CAF50" d="M 463.846097 376.000000 L 256.000000 496.000000 A 240.000000 240.000000 0 0 0 463.846097 376.000000" />
<path fill="#FFEB3B" d="M 256.000000 496.000000 L 48.153903 376.000000 A 240.000000 240.000000 0 0 0 256.000000 496.000000" />
<path fill="#2196F3" d="M 48.153903 376.000000 L 48.153903 136.000000 A 240.000000 240.000000 0 0 0 48.153903 376.000000" />
<path fill="#9C27B0" d="M 48.153903 136.000000 L 256.000000 16.000000 A 240.000000 240.000000 0 0 0 48.153903 136.000000" />
</svg>
